<?xml version="1.0" standalone="no"?>
<!DOCTYPE svg PUBLIC "-//W3C//DTD SVG 20010904//EN"
 "http://www.w3.org/TR/2001/REC-SVG-20010904/DTD/svg10.dtd">
<svg version="1.0" xmlns="http://www.w3.org/2000/svg"
 width="32.000000pt" height="32.000000pt" viewBox="0 0 32.000000 32.000000"
 preserveAspectRatio="xMidYMid meet">

<g transform="translate(0.000000,32.000000) scale(0.100000,-0.100000)"
fill="#000000" stroke="none">
<path d="M25 234 c-24 -24 -15 -56 22 -79 45 -27 39 -51 -11 -47 -28 2 -37 0
-34 -10 3 -8 24 -14 51 -16 38 -3 48 0 57 18 16 29 4 56 -30 70 -51 21 -46 59
6 46 17 -5 24 -2 24 8 0 28 -59 35 -85 10z"/>
<path d="M198 235 c-32 -18 -45 -66 -29 -107 18 -47 76 -63 119 -32 29 20 32
102 5 127 -27 24 -65 28 -95 12z m86 -48 c20 -57 -48 -116 -81 -71 -16 23 -17
76 -1 92 7 7 26 12 43 10 22 -2 32 -10 39 -31z"/>
</g>
</svg>
